<svg width="438" height="261" viewBox="0 0 438 261" fill="none" xmlns="http://www.w3.org/2000/svg">
<path d="M320.161 5.08319L277.357 48.1132H277.615L201.475 124.374L201.123 124.021L163.746 161.458H127.518L164.166 124.75C145.601 106.845 121.904 88.8511 101.645 88.8511C61.3285 88.8511 28.6455 119.736 28.6455 160.117C28.6455 200.498 61.3285 231.383 101.645 231.383C119.192 231.383 139.941 218.506 157.079 203.257L199.589 160.677L199.59 160.681L200.009 160.258L218.656 141.583L218.602 141.529L257.174 102.682C275.293 77.4878 304.835 61.0851 338.203 61.0851C393.319 61.0851 438 105.838 438 161.043C438 216.248 393.319 261 338.203 261C306.367 261 278.013 246.069 259.74 222.816L218.402 181.411L166.587 233.234L166.581 233.232C149.471 250.459 126.641 261 99.7971 261C44.6807 261 2.80275e-06 216.248 0 161.043C4.81843e-06 105.838 44.6807 61.0851 99.7971 61.0851C134.549 61.0851 165.152 78.8774 183.023 105.863L262.844 25.9149H129.367L157.088 0H325.264L320.161 5.08319ZM336.355 90.7021C296.038 90.7021 242.1 161.968 242.1 161.968C242.12 161.995 248.605 170.557 258.748 181.739L279.874 202.899L279.829 202.943C297.328 218.811 318.219 233.234 336.355 233.234C376.671 233.234 409.355 202.349 409.355 161.968C409.355 121.587 376.671 90.7021 336.355 90.7021Z" fill="#FAF9F6"/>
</svg>
